<?xml version="1.0" encoding="UTF-8" standalone="no"?>
<!-- Created with Inkscape (http://www.inkscape.org/) -->

<svg
   width="512"
   height="512"
   viewBox="0 0 512 512"
   version="1.1"
   id="svg1"
   inkscape:version="1.3.1 (91b66b0783, 2023-11-16)"
   sodipodi:docname="burger_white.svg"
   xmlns:inkscape="http://www.inkscape.org/namespaces/inkscape"
   xmlns:sodipodi="http://sodipodi.sourceforge.net/DTD/sodipodi-0.dtd"
   xmlns="http://www.w3.org/2000/svg"
   xmlns:svg="http://www.w3.org/2000/svg">
  <sodipodi:namedview
     id="namedview1"
     pagecolor="#ffffff"
     bordercolor="#000000"
     borderopacity="0.25"
     inkscape:showpageshadow="2"
     inkscape:pageopacity="0.0"
     inkscape:pagecheckerboard="0"
     inkscape:deskcolor="#d1d1d1"
     inkscape:document-units="px"
     inkscape:zoom="0.51757813"
     inkscape:cx="266.62641"
     inkscape:cy="190.30943"
     inkscape:window-width="1280"
     inkscape:window-height="961"
     inkscape:window-x="-8"
     inkscape:window-y="-8"
     inkscape:window-maximized="1"
     inkscape:current-layer="layer3" />
  <defs
     id="defs1" />
  <g
     inkscape:groupmode="layer"
     id="layer3"
     inkscape:label="Слой 2">
    <path
       id="rect2-4"
       style="fill:#ffffff;stroke-width:2.41195;stroke-linejoin:bevel"
       d="m 41.376344,209.61421 429.344076,0.44356 c 22.89734,0.0237 41.33101,-0.56149 41.33101,24.77817 0,25.33968 -18.43367,24.80185 -41.33101,24.77819 L 41.376344,259.17057 C 18.479,259.14691 0.04534346,260.41514 0.04534346,234.39238 0.04534346,209.7358 18.479,209.59055 41.376344,209.61421 Z"
       sodipodi:nodetypes="sssssss"
       inkscape:label="rect2-4" />
    <path
       id="rect2-4-03"
       style="fill:#ffffff;fill-opacity:1;stroke-width:2.41195;stroke-linejoin:bevel"
       d="m 42.331001,342.90733 429.344079,0.44356 c 22.89734,0.0237 39.33101,-0.78289 39.33101,24.77817 0,24.83655 -16.43367,24.80185 -39.33101,24.77819 L 42.331001,392.46369 C 19.433656,392.44003 1,393.48808 1,367.6855 1,344.53952 19.433657,342.88367 42.331001,342.90733 Z"
       sodipodi:nodetypes="sssssss" />
    <path
       id="rect2-4-0"
       style="fill:#ffffff;stroke-width:2.41194;stroke-linejoin:bevel"
       d="m 42.42371,76.092746 429.34408,0.443564 c 22.89734,0.02365 39.33101,-0.732272 39.33101,24.77815 0,25.5105 -16.43367,24.80189 -39.33101,24.77821 L 42.42371,125.64908 c -22.897344,-0.0236 -41.3310009,0.56153 -41.3310009,-24.77814 0,-24.998121 18.4336569,-24.801854 41.3310009,-24.778194 z"
       sodipodi:nodetypes="sssssss" />
  </g>
</svg>
