<?xml version="1.0" encoding="UTF-8" standalone="no"?>
<!-- Created with Inkscape (http://www.inkscape.org/) -->

<svg
   width="512"
   height="512"
   viewBox="0 0 512 512"
   version="1.1"
   id="svg1"
   inkscape:version="1.3.1 (91b66b0783, 2023-11-16)"
   sodipodi:docname="burger_white.svg"
   xmlns:inkscape="http://www.inkscape.org/namespaces/inkscape"
   xmlns:sodipodi="http://sodipodi.sourceforge.net/DTD/sodipodi-0.dtd"
   xmlns="http://www.w3.org/2000/svg"
   xmlns:svg="http://www.w3.org/2000/svg">
  <sodipodi:namedview
     id="namedview1"
     pagecolor="#ffffff"
     bordercolor="#000000"
     borderopacity="0.25"
     inkscape:showpageshadow="2"
     inkscape:pageopacity="0.0"
     inkscape:pagecheckerboard="0"
     inkscape:deskcolor="#d1d1d1"
     inkscape:document-units="px"
     inkscape:zoom="0.95569901"
     inkscape:cx="266.82041"
     inkscape:cy="481.84627"
     inkscape:window-width="1280"
     inkscape:window-height="961"
     inkscape:window-x="-8"
     inkscape:window-y="-8"
     inkscape:window-maximized="1"
     inkscape:current-layer="layer3" />
  <defs
     id="defs1" />
  <g
     inkscape:groupmode="layer"
     id="layer3"
     inkscape:label="Слой 2">
    <path
       id="rect2-4"
       style="fill:#ffffff;stroke-width:3.0509;stroke-linejoin:bevel"
       d="m 41.376344,209.61423 429.344076,0.7097 c 22.89734,0.0379 41.33101,17.68171 41.33101,39.64508 0,21.96338 -18.43367,39.68295 -41.33101,39.6451 L 41.376344,288.90441 C 18.479,288.86656 0.04534346,271.22269 0.04534346,249.25931 c 0,-21.96338 18.43365654,-39.68293 41.33100054,-39.64508 z"
       sodipodi:nodetypes="sssssss" />
    <path
       id="rect2-4-03"
       style="fill:#ffffff;stroke-width:3.0509;stroke-linejoin:bevel"
       d="m 40.331001,332.90735 429.344079,0.7097 c 22.89734,0.0379 41.33101,17.68171 41.33101,39.64508 0,21.96338 -18.43367,39.68295 -41.33101,39.6451 L 40.331001,412.19753 C 17.433656,412.15968 -1,394.51581 -1,372.55243 -1,350.58905 17.433657,332.8695 40.331001,332.90735 Z"
       sodipodi:nodetypes="sssssss" />
    <path
       id="rect2-4-0"
       style="fill:#ffffff;stroke-width:3.05089;stroke-linejoin:bevel"
       d="m 40.42371,86.092769 429.34408,0.709702 c 22.89734,0.03784 41.33101,17.681699 41.33101,39.645049 0,21.96346 -18.43367,39.68301 -41.33101,39.64513 L 40.42371,165.3829 c -22.897344,-0.0378 -41.33100091,-17.68165 -41.33100091,-39.64502 0,-21.96337 18.43365691,-39.682968 41.33100091,-39.645111 z"
       sodipodi:nodetypes="sssssss" />
  </g>
</svg>
